# xmcd CD database file
#
# Track frame offsets:
#	150
#	15599
#	27616
#	42667
#	58253
#	73098
#	91954
#	107604
#	124017
#	138132
#	157833
#	171983
#	190613
#
# Disc length: 2729 seconds
#
# Revision: 0
# Processed by: cddbd v1.5.2PL0 Copyright (c) Steve Scherf et al.
# Submitted via: CDex 1.78
#
DISCID=ae0aa70d
DTITLE=Steven Clawson - Summer Sessions
DYEAR=1900
DGENRE=Blues
TTITLE0=Born With It
TTITLE1=Slow
TTITLE2=Nobody Knows
TTITLE3=Let's Just Go
TTITLE4=Maybe I'm Wrong
TTITLE5=You Bring Me Back
TTITLE6=Where'd You Go
TTITLE7=Closer Than I Think
TTITLE8=Pretty Good On A Lonely Night
TTITLE9=What I Need
TTITLE10=I'd Rather Be Lonesome Tonight
TTITLE11=Bulletproof Days
TTITLE12=If You Were Mine
EXTD=
EXTT0=
EXTT1=
EXTT2=
EXTT3=
EXTT4=
EXTT5=
EXTT6=
EXTT7=
EXTT8=
EXTT9=
EXTT10=
EXTT11=
EXTT12=
PLAYORDER=
